<?xml version="1.0" encoding="UTF-8"?>
<svg width="400" height="400" viewBox="0 0 400 400" xmlns="http://www.w3.org/2000/svg">
  <!-- Background -->
  <circle cx="200" cy="200" r="160" fill="#FFF8F0"/>
  
  <!-- Bowl shadow -->
  <ellipse cx="200" cy="310" rx="135" ry="45" fill="#DCD2C8" opacity="0.4"/>
  
  <!-- Bowl - dark ceramic -->
  <ellipse cx="200" cy="280" rx="140" ry="70" fill="#424242"/>
  <ellipse cx="200" cy="275" rx="125" ry="60" fill="#505050"/>
  
  <!-- Broth -->
  <ellipse cx="200" cy="260" rx="115" ry="40" fill="#FFC107"/>
  <ellipse cx="200" cy="255" rx="100" ry="30" fill="#FFD54F"/>
  
  <!-- Noodles -->
  <path d="M 120 220 Q 150 250 180 230 Q 210 210 240 240 Q 270 270 280 250" fill="none" stroke="#FFF8E1" stroke-width="8" stroke-linecap="round"/>
  <path d="M 130 230 Q 160 200 190 230 Q 220 260 250 240 Q 280 220 290 250" fill="none" stroke="#FFF8E1" stroke-width="8" stroke-linecap="round"/>
  <path d="M 115 240 Q 145 270 175 250 Q 205 230 235 260 Q 265 290 275 270" fill="none" stroke="#FFF8E1" stroke-width="6" stroke-linecap="round"/>
  
  <!-- Soft boiled egg -->
  <ellipse cx="220" cy="210" rx="40" ry="40" fill="#FFFFFF"/>
  <ellipse cx="220" cy="210" rx="30" ry="30" fill="#FFEB3B"/>
  <ellipse cx="215" cy="205" rx="15" ry="15" fill="#FFF9C4"/>
  
  <!-- Chashu pork -->
  <ellipse cx="300" cy="240" rx="35" ry="40" fill="#B71C1C"/>
  <ellipse cx="300" cy="235" rx="28" ry="35" fill="#D32F2F"/>
  <path d="M 285 230 Q 300 220 315 230" fill="none" stroke="white" stroke-width="2" opacity="0.6"/>
  
  <!-- Green onion slices -->
  <ellipse cx="140" cy="245" rx="12" ry="6" fill="#8BC34A"/>
  <ellipse cx="140" cy="245" rx="8" ry="4" fill="#AED581"/>
  <ellipse cx="165" cy="255" rx="12" ry="6" fill="#8BC34A"/>
  <ellipse cx="165" cy="255" rx="8" ry="4" fill="#AED581"/>
  <ellipse cx="310" cy="205" rx="12" ry="6" fill="#8BC34A"/>
  <ellipse cx="310" cy="205" rx="8" ry="4" fill="#AED581"/>
  
  <!-- Steam -->
  <path d="M 140 150 Q 145 130 140 110" fill="none" stroke="white" stroke-width="4" stroke-linecap="round" opacity="0.6"/>
  <path d="M 170 145 Q 175 120 170 95" fill="none" stroke="white" stroke-width="4" stroke-linecap="round" opacity="0.5"/>
  <path d="M 200 140 Q 205 115 200 90" fill="none" stroke="white" stroke-width="4" stroke-linecap="round" opacity="0.5"/>
  <path d="M 230 145 Q 235 120 230 95" fill="none" stroke="white" stroke-width="4" stroke-linecap="round" opacity="0.5"/>
  <path d="M 260 150 Q 265 130 260 110" fill="none" stroke="white" stroke-width="4" stroke-linecap="round" opacity="0.6"/>
</svg>